{
	"asset":{
		"generator":"Khronos glTF Blender I/O v4.3.47",
		"version":"2.0"
	},
	"extensionsUsed":[
		"KHR_materials_unlit"
	],
	"scene":0,
	"scenes":[
		{
			"name":"Scene",
			"nodes":[
				0
			]
		}
	],
	"nodes":[
		{
			"mesh":0,
			"name":"handle_4way"
		}
	],
	"materials":[
		{
			"extensions":{
				"KHR_materials_unlit":{}
			},
			"name":"handles",
			"pbrMetallicRoughness":{
				"metallicFactor":0,
				"roughnessFactor":0.9
			}
		}
	],
	"meshes":[
		{
			"name":"handle_4way",
			"primitives":[
				{
					"attributes":{
						"POSITION":0,
						"NORMAL":1,
						"TEXCOORD_0":2
					},
					"indices":3,
					"material":0
				}
			]
		}
	],
	"accessors":[
		{
			"bufferView":0,
			"componentType":5126,
			"count":900,
			"max":[
				2.261707305908203,
				0.9163063764572144,
				2.261707305908203
			],
			"min":[
				-2.261707305908203,
				0.791313886642456,
				-1.149457335472107
			],
			"type":"VEC3"
		},
		{
			"bufferView":1,
			"componentType":5126,
			"count":900,
			"type":"VEC3"
		},
		{
			"bufferView":2,
			"componentType":5126,
			"count":900,
			"type":"VEC2"
		},
		{
			"bufferView":3,
			"componentType":5123,
			"count":5328,
			"type":"SCALAR"
		}
	],
	"bufferViews":[
		{
			"buffer":0,
			"byteLength":10800,
			"byteOffset":0,
			"target":34962
		},
		{
			"buffer":0,
			"byteLength":10800,
			"byteOffset":10800,
			"target":34962
		},
		{
			"buffer":0,
			"byteLength":7200,
			"byteOffset":21600,
			"target":34962
		},
		{
			"buffer":0,
			"byteLength":10656,
			"byteOffset":28800,
			"target":34963
		}
	],
	"buffers":[
		{
			"byteLength":39456,
			"uri":"rotation_4way.bin"
		}
	]
}
